<?xml version="1.0" standalone="no"?>
<!DOCTYPE svg PUBLIC "-//W3C//DTD SVG 20010904//EN"
 "http://www.w3.org/TR/2001/REC-SVG-20010904/DTD/svg10.dtd">
<svg version="1.0" xmlns="http://www.w3.org/2000/svg"
 width="640.000000pt" height="1280.000000pt" viewBox="0 0 640.000000 1280.000000"
 preserveAspectRatio="xMidYMid meet">
<metadata>
Created by potrace 1.15, written by Peter Selinger 2001-2017
</metadata>
<g transform="translate(0.000000,1280.000000) scale(0.100000,-0.100000)"
fill="#000000" stroke="none">
<path d="M4741 12777 c-14 -36 -33 -384 -30 -545 l3 -142 -51 -53 c-42 -43
-55 -65 -72 -122 -56 -192 -53 -516 6 -715 25 -82 25 -85 9 -131 -15 -42 -16
-50 -2 -90 9 -24 16 -66 16 -94 0 -27 7 -71 15 -97 16 -55 19 -54 -75 -32
-149 35 -169 47 -315 189 -44 43 -130 120 -192 172 -62 51 -127 111 -145 132
-31 38 -33 42 -30 113 2 40 7 89 11 108 4 20 4 46 0 58 -6 16 -2 28 16 48 14
15 25 30 25 33 0 3 -10 62 -22 131 -12 75 -22 182 -23 268 -2 105 -9 168 -25
239 -20 84 -28 101 -68 147 -43 49 -129 118 -181 146 -13 7 -76 30 -140 51
-100 34 -127 39 -207 39 -106 0 -141 -12 -246 -82 -100 -68 -165 -151 -201
-259 -3 -8 -32 -30 -66 -48 -33 -17 -72 -46 -85 -64 -29 -38 -56 -136 -56
-203 0 -62 34 -197 58 -232 37 -54 45 -87 31 -126 -17 -48 -3 -116 45 -217 47
-100 111 -160 176 -167 61 -6 81 -31 169 -207 58 -115 71 -151 71 -189 0 -26
7 -63 15 -83 17 -41 20 -80 5 -85 -6 -2 -26 -47 -44 -101 -54 -154 -77 -182
-196 -244 -41 -22 -97 -53 -125 -71 -27 -17 -57 -32 -66 -32 -24 0 -81 -47
-110 -90 -54 -81 -72 -197 -104 -695 -19 -300 -45 -428 -108 -549 -14 -26 -45
-143 -64 -246 -6 -31 -13 -44 -23 -43 -21 2 -134 26 -139 29 -7 6 45 81 91
132 46 51 48 56 48 111 0 61 -12 82 -57 95 -13 4 -23 12 -23 17 0 5 -7 9 -15
9 -14 0 -125 56 -445 224 -91 48 -181 95 -200 104 -19 9 -36 20 -38 25 -2 4
-10 7 -17 7 -7 0 -54 20 -104 45 -50 25 -94 45 -98 45 -4 1 -26 9 -48 20 -22
11 -44 19 -48 20 -5 0 -23 11 -41 25 -18 14 -36 25 -40 25 -11 0 -309 151
-337 171 -15 10 -38 19 -52 19 -13 0 -30 7 -37 15 -14 17 -70 21 -70 5 0 -5
-18 -10 -39 -10 -22 0 -42 -3 -44 -7 -7 -14 13 -73 25 -73 6 0 2 -10 -9 -22
-11 -13 -25 -32 -31 -43 -22 -43 -82 -214 -82 -233 0 -22 81 -82 111 -82 10 0
58 -20 106 -44 49 -24 114 -56 145 -71 59 -28 68 -39 68 -84 0 -28 29 -62 63
-74 9 -4 22 -19 28 -34 5 -15 51 -68 102 -118 51 -50 100 -103 110 -118 10
-15 35 -34 55 -43 98 -40 159 -97 168 -156 3 -24 19 -82 35 -130 16 -47 29
-92 29 -98 0 -28 83 -271 98 -289 16 -17 42 -20 307 -30 301 -12 494 -34 554
-65 39 -21 39 -1 1 -441 -5 -66 -12 -468 -15 -893 l-4 -773 23 -10 c20 -9 25
-23 34 -83 6 -39 14 -109 17 -156 15 -228 68 -550 136 -830 11 -47 24 -107 29
-135 4 -27 12 -68 18 -90 10 -37 27 -112 54 -240 6 -27 19 -79 29 -114 11 -35
19 -73 19 -84 0 -19 8 -53 36 -152 7 -27 27 -108 44 -180 17 -71 35 -146 40
-165 5 -19 11 -46 14 -60 2 -14 9 -43 14 -65 6 -22 15 -67 22 -100 6 -33 20
-91 31 -130 11 -38 24 -88 30 -110 24 -94 71 -221 87 -237 7 -7 12 -20 12 -30
0 -9 18 -55 41 -100 22 -46 48 -99 57 -118 9 -19 26 -48 37 -64 20 -29 60
-101 91 -166 10 -19 21 -60 25 -90 4 -30 9 -64 11 -74 3 -20 -1 -23 -93 -65
-60 -27 -65 -35 -84 -113 -18 -77 -10 -110 33 -146 l27 -22 -24 -41 c-13 -23
-27 -54 -31 -68 -5 -14 -18 -51 -29 -81 -12 -30 -21 -61 -21 -69 0 -20 -126
-161 -174 -194 -41 -28 -41 -28 -146 -20 -319 25 -516 -23 -577 -141 -38 -72
26 -194 128 -247 60 -30 174 -57 309 -73 166 -20 460 -37 622 -35 72 0 134 -3
139 -8 44 -44 -37 -169 -251 -388 -172 -176 -205 -225 -205 -305 0 -92 58
-177 135 -200 56 -16 170 -12 404 15 215 25 271 34 331 58 103 40 313 202 517
398 l97 94 4 110 c2 61 9 182 15 271 10 137 9 168 -4 215 -41 142 -41 136 -7
172 54 56 66 92 71 207 4 99 2 109 -27 183 -36 90 -38 126 -12 245 15 71 20
143 24 392 2 168 0 337 -5 375 -5 39 -13 414 -18 835 -8 653 -8 777 5 845 68
377 105 798 105 1191 0 230 -8 217 140 234 88 11 213 29 335 50 28 5 68 16 90
24 39 14 40 15 43 66 2 29 -2 66 -8 84 -6 17 -18 90 -25 163 -8 79 -20 141
-29 155 -14 22 -28 84 -61 278 -9 52 -21 105 -26 118 -5 13 -9 37 -9 54 0 17
-4 47 -10 67 -21 80 -69 355 -85 491 -17 143 -43 260 -111 493 -19 66 -34 125
-34 133 0 8 -9 40 -19 72 -23 67 -44 163 -71 317 -26 144 -27 372 -4 457 16
54 25 66 112 146 52 48 100 99 108 115 18 33 31 34 55 2 41 -51 76 -67 182
-81 134 -18 291 -17 342 1 22 8 46 15 52 15 28 0 184 85 213 115 39 41 59 128
67 290 l5 110 -36 59 c-32 53 -36 67 -36 130 0 79 -20 133 -65 181 -15 17 -36
46 -46 65 -11 19 -33 53 -49 75 -16 22 -34 60 -40 85 -30 119 -53 180 -84 226
-77 113 -180 281 -237 386 -116 216 -159 284 -225 360 -69 78 -68 68 -18 213
41 120 44 138 44 231 l0 102 -40 36 c-22 20 -48 36 -59 36 -16 0 -17 5 -10 52
5 29 7 61 4 72 -2 12 -6 33 -10 48 -11 56 -89 123 -160 138 l-30 6 4 342 c4
366 3 372 -45 372 -16 0 -27 -8 -33 -23z"/>
</g>
</svg>
